<svg width="36" height="36" viewBox="0 0 36 36" fill="none" xmlns="http://www.w3.org/2000/svg">
<rect x="0.865234" y="0.5" width="35" height="35" rx="3.30303" fill="#651BB7"/>
<path d="M28.0201 8.78856C27.7528 8.6152 27.4471 8.51033 27.13 8.48315C26.8128 8.45597 26.4938 8.50732 26.2011 8.63269L16.6084 12.4202C16.3813 12.5129 16.1384 12.5605 15.8932 12.5605H9.75205C9.23663 12.5605 8.74231 12.7658 8.37785 13.1312C8.01339 13.4966 7.80864 13.9921 7.80864 14.5089V14.6647H5.86523V19.3407H7.80864V19.5433C7.82082 20.0519 8.03094 20.5356 8.39408 20.8909C8.75723 21.2462 9.24461 21.4451 9.75205 21.4449L12.0841 26.4015C12.2421 26.7352 12.4907 27.0176 12.8014 27.2161C13.1122 27.4146 13.4725 27.5212 13.841 27.5237H14.8205C15.3332 27.5196 15.8235 27.3125 16.1846 26.9476C16.5457 26.5826 16.7483 26.0894 16.7483 25.5754V21.6319L26.2011 25.4195C26.4336 25.5123 26.6815 25.5599 26.9318 25.5598C27.32 25.5535 27.6981 25.4344 28.0201 25.2169C28.2758 25.0438 28.4867 24.8121 28.6354 24.5411C28.7841 24.27 28.8663 23.9674 28.8752 23.6582V10.394C28.8738 10.0768 28.7951 9.7648 28.6461 9.48502C28.4971 9.20524 28.2822 8.96617 28.0201 8.78856ZM14.8049 14.5089V19.5433H9.75205V14.5089H14.8049ZM14.8049 25.5754H13.8254L11.9131 21.4449H14.8049V25.5754ZM17.3236 19.7771C17.139 19.6826 16.9465 19.6043 16.7483 19.5433V14.3997C16.9446 14.3591 17.137 14.3018 17.3236 14.2283L26.9318 10.394V23.6114L17.3236 19.7771ZM28.9218 15.0544V18.951C29.4373 18.951 29.9316 18.7458 30.296 18.3804C30.6605 18.015 30.8652 17.5194 30.8652 17.0027C30.8652 16.486 30.6605 15.9904 30.296 15.625C29.9316 15.2597 29.4373 15.0544 28.9218 15.0544Z" fill="#F8F8F8"/>
</svg>
