<svg width="36" height="36" viewBox="0 0 36 36" fill="none" xmlns="http://www.w3.org/2000/svg">
<rect x="0.865234" y="0.5" width="35" height="35" rx="3.30303" fill="#009818"/>
<rect x="0.865234" y="0.5" width="35" height="35" rx="3.30303" fill="black" fill-opacity="0.2"/>
<path d="M13.6777 16.4375C13.6777 15.6087 14.007 14.8138 14.593 14.2278C15.1791 13.6417 15.9739 13.3125 16.8027 13.3125C17.6315 13.3125 18.4264 13.6417 19.0124 14.2278C19.5985 14.8138 19.9277 15.6087 19.9277 16.4375C19.9277 17.2663 19.5985 18.0612 19.0124 18.6472C18.4264 19.2333 17.6315 19.5625 16.8027 19.5625C15.9739 19.5625 15.1791 19.2333 14.593 18.6472C14.007 18.0612 13.6777 17.2663 13.6777 16.4375ZM16.8027 14.875C16.3883 14.875 15.9909 15.0396 15.6979 15.3326C15.4049 15.6257 15.2402 16.0231 15.2402 16.4375C15.2402 16.8519 15.4049 17.2493 15.6979 17.5424C15.9909 17.8354 16.3883 18 16.8027 18C17.2171 18 17.6146 17.8354 17.9076 17.5424C18.2006 17.2493 18.3652 16.8519 18.3652 16.4375C18.3652 16.0231 18.2006 15.6257 17.9076 15.3326C17.6146 15.0396 17.2171 14.875 16.8027 14.875ZM8.20898 8.625C7.58738 8.625 6.99124 8.87193 6.5517 9.31147C6.11216 9.75101 5.86523 10.3471 5.86523 10.9688V21.9062C5.86523 22.5279 6.11216 23.124 6.5517 23.5635C6.99124 24.0031 7.58738 24.25 8.20898 24.25H25.3965C26.0181 24.25 26.6142 24.0031 27.0538 23.5635C27.4933 23.124 27.7402 22.5279 27.7402 21.9062V10.9688C27.7402 10.3471 27.4933 9.75101 27.0538 9.31147C26.6142 8.87193 26.0181 8.625 25.3965 8.625H8.20898ZM7.42773 10.9688C7.42773 10.7615 7.51004 10.5628 7.65656 10.4163C7.80307 10.2698 8.00178 10.1875 8.20898 10.1875H10.5527V11.75C10.5527 12.1644 10.3881 12.5618 10.0951 12.8549C9.80206 13.1479 9.40464 13.3125 8.99023 13.3125H7.42773V10.9688ZM7.42773 14.875H8.99023C9.81904 14.875 10.6139 14.5458 11.1999 13.9597C11.786 13.3737 12.1152 12.5788 12.1152 11.75V10.1875H21.4902V11.75C21.4902 12.5788 21.8195 13.3737 22.4055 13.9597C22.9916 14.5458 23.7864 14.875 24.6152 14.875H26.1777V18H24.6152C23.7864 18 22.9916 18.3292 22.4055 18.9153C21.8195 19.5013 21.4902 20.2962 21.4902 21.125V22.6875H12.1152V21.125C12.1152 20.2962 11.786 19.5013 11.1999 18.9153C10.6139 18.3292 9.81904 18 8.99023 18H7.42773V14.875ZM23.0527 10.1875H25.3965C25.6037 10.1875 25.8024 10.2698 25.9489 10.4163C26.0954 10.5628 26.1777 10.7615 26.1777 10.9688V13.3125H24.6152C24.2008 13.3125 23.8034 13.1479 23.5104 12.8549C23.2174 12.5618 23.0527 12.1644 23.0527 11.75V10.1875ZM26.1777 19.5625V21.9062C26.1777 22.1135 26.0954 22.3122 25.9489 22.4587C25.8024 22.6052 25.6037 22.6875 25.3965 22.6875H23.0527V21.125C23.0527 20.7106 23.2174 20.3132 23.5104 20.0201C23.8034 19.7271 24.2008 19.5625 24.6152 19.5625H26.1777ZM10.5527 22.6875H8.20898C8.00178 22.6875 7.80307 22.6052 7.65656 22.4587C7.51004 22.3122 7.42773 22.1135 7.42773 21.9062V19.5625H8.99023C9.40464 19.5625 9.80206 19.7271 10.0951 20.0201C10.3881 20.3132 10.5527 20.7106 10.5527 21.125V22.6875ZM29.3027 21.9062C29.3027 22.9423 28.8912 23.9358 28.1586 24.6684C27.4261 25.4009 26.4325 25.8125 25.3965 25.8125H9.12305C9.28467 26.2697 9.58411 26.6654 9.98009 26.9453C10.3761 27.2251 10.8491 27.3753 11.334 27.375H25.3965C26.8469 27.375 28.2379 26.7988 29.2635 25.7732C30.2891 24.7477 30.8652 23.3567 30.8652 21.9062V14.0938C30.8655 13.6089 30.7153 13.1358 30.4355 12.7399C30.1557 12.3439 29.7599 12.0444 29.3027 11.8828V21.9062Z" fill="#ECF7FF"/>
</svg>
