<svg width="33" height="32" viewBox="0 0 33 32" fill="none" xmlns="http://www.w3.org/2000/svg">
<rect x="0.865234" width="32" height="32" rx="3.30303" fill="#D87400"/>
<path d="M23.5326 11.5554C25.3736 11.5554 26.866 10.063 26.866 8.22205C26.866 6.38108 25.3736 4.88867 23.5326 4.88867C21.6916 4.88867 20.1992 6.38108 20.1992 8.22205C20.1992 10.063 21.6916 11.5554 23.5326 11.5554Z" stroke="#F8F8F8" stroke-width="1.98182"/>
<path d="M23.5326 27.1111C25.3736 27.1111 26.866 25.6187 26.866 23.7777C26.866 21.9367 25.3736 20.4443 23.5326 20.4443C21.6916 20.4443 20.1992 21.9367 20.1992 23.7777C20.1992 25.6187 21.6916 27.1111 23.5326 27.1111Z" stroke="#F8F8F8" stroke-width="1.98182"/>
<path d="M10.1986 19.3333C12.0396 19.3333 13.532 17.8409 13.532 15.9999C13.532 14.1589 12.0396 12.6665 10.1986 12.6665C8.35764 12.6665 6.86523 14.1589 6.86523 15.9999C6.86523 17.8409 8.35764 19.3333 10.1986 19.3333Z" stroke="#F8F8F8" stroke-width="1.98182"/>
<path d="M20.6533 22.0976L13.082 17.6809M20.6533 9.90186L13.082 14.3186L20.6533 9.90186Z" stroke="#F8F8F8" stroke-width="1.98182" stroke-linecap="round" stroke-linejoin="round"/>
</svg>
