<svg width="33" height="32" viewBox="0 0 33 32" fill="none" xmlns="http://www.w3.org/2000/svg">
<rect x="0.865234" width="32" height="32" rx="3.30303" fill="#494949"/>
<path d="M24.5583 5.42334H9.17368C7.58055 5.42334 6.28906 6.71483 6.28906 8.30796V23.6926C6.28906 25.2857 7.58055 26.5772 9.17368 26.5772H24.5583C26.1514 26.5772 27.4429 25.2857 27.4429 23.6926V8.30796C27.4429 6.71483 26.1514 5.42334 24.5583 5.42334Z" stroke="#F8F8F8" stroke-width="1.98182" stroke-linejoin="round"/>
<path d="M22.6348 9.26953H11.0963C10.5653 9.26953 10.1348 9.70003 10.1348 10.2311V21.7695C10.1348 22.3006 10.5653 22.7311 11.0963 22.7311H22.6348C23.1658 22.7311 23.5963 22.3006 23.5963 21.7695V10.2311C23.5963 9.70003 23.1658 9.26953 22.6348 9.26953Z" stroke="#F8F8F8" stroke-width="1.98182" stroke-linejoin="round"/>
<path d="M4.36523 11.1923H6.28831M16.8652 5.42308V3.5V5.42308ZM21.6729 5.42308V3.5V5.42308ZM12.0575 5.42308V3.5V5.42308ZM16.8652 28.5V26.5769V28.5ZM21.6729 28.5V26.5769V28.5ZM12.0575 28.5V26.5769V28.5ZM27.4422 16H29.3652H27.4422ZM27.4422 20.8077H29.3652H27.4422ZM27.4422 11.1923H29.3652H27.4422ZM4.36523 16H6.28831H4.36523ZM4.36523 20.8077H6.28831H4.36523Z" stroke="#F8F8F8" stroke-width="1.98182" stroke-linecap="round" stroke-linejoin="round"/>
</svg>
