<svg width="33" height="32" viewBox="0 0 33 32" fill="none" xmlns="http://www.w3.org/2000/svg">
<rect x="0.865234" width="32" height="32" rx="3.30303" fill="#098871"/>
<g clip-path="url(#clip0_1010_4084)">
<path d="M27.2826 8.14586C27.1576 5.7778 20.7062 5.13892 16.8659 5.13892C13.0256 5.13892 6.44922 5.78475 6.44922 8.20836V23.8959C6.44922 26.3195 12.9978 26.9722 16.8659 26.9722C20.7339 26.9722 27.2826 26.3264 27.2826 23.8959V8.14586ZM25.8937 13.3959C25.6645 13.9931 22.3798 15.0972 16.8659 15.0972C14.2868 15.1631 11.7124 14.8448 9.227 14.1528V15.5972C11.7248 16.2191 14.292 16.5179 16.8659 16.4861C19.6437 16.4861 23.7617 16.1528 25.8937 15.0972V18.6875C25.6645 19.2847 22.3798 20.3889 16.8659 20.3889C14.2855 20.4457 11.7109 20.118 9.227 19.4167V20.8611C11.7248 21.483 14.292 21.7818 16.8659 21.75C19.6437 21.75 23.7617 21.4167 25.8937 20.3611V23.9028C25.6506 24.5 22.3659 25.6042 16.8659 25.6042C11.3659 25.6042 8.04644 24.4722 7.83811 23.8959V8.23614C8.04644 7.66669 11.3103 6.5278 16.8659 6.5278C22.2617 6.5278 25.5187 7.5903 25.8937 8.17364C25.5326 8.7778 22.2756 9.83336 16.8659 9.83336C14.2869 9.89763 11.7127 9.57936 9.227 8.88892V10.3403C11.7254 10.9583 14.2924 11.2546 16.8659 11.2222C19.6437 11.2222 23.7617 10.8889 25.8937 9.83336V13.3959Z" fill="#F8F8F8"/>
</g>
<defs>
<clipPath id="clip0_1010_4084">
<rect width="25" height="25" fill="white" transform="translate(4.36523 3.5)"/>
</clipPath>
</defs>
</svg>
