<svg width="33" height="32" viewBox="0 0 33 32" fill="none" xmlns="http://www.w3.org/2000/svg">
<rect x="0.865234" width="32" height="32" rx="3.30303" fill="#D80074"/>
<path d="M16.9902 21.0312C16.9902 21.1688 17.0965 21.2812 17.2246 21.2812H23.0059C23.134 21.2812 23.2402 21.1688 23.2402 21.0312V19.5312C23.2402 19.3938 23.134 19.2812 23.0059 19.2812H17.2246C17.0965 19.2812 16.9902 19.3938 16.9902 19.5312V21.0312ZM10.8996 21.2219L16.8996 16.1906C17.0184 16.0906 17.0184 15.9062 16.8996 15.8062L10.8996 10.7781C10.8634 10.7473 10.8191 10.7276 10.772 10.7212C10.7249 10.7148 10.6769 10.7221 10.6338 10.7422C10.5907 10.7622 10.5543 10.7943 10.5288 10.8344C10.5034 10.8746 10.49 10.9212 10.4902 10.9688V12.9281C10.4902 13.0031 10.5215 13.0719 10.5809 13.1187L14.0121 16L10.5809 18.8813C10.5529 18.9046 10.5304 18.9338 10.5147 18.9667C10.4991 18.9996 10.4907 19.0355 10.4902 19.0719V21.0312C10.4902 21.2437 10.7371 21.3594 10.8996 21.2219ZM28.3652 3.5H5.36523C4.81211 3.5 4.36523 3.94687 4.36523 4.5V27.5C4.36523 28.0531 4.81211 28.5 5.36523 28.5H28.3652C28.9184 28.5 29.3652 28.0531 29.3652 27.5V4.5C29.3652 3.94687 28.9184 3.5 28.3652 3.5ZM27.1152 26.25H6.61523V5.75H27.1152V26.25Z" fill="#F8F8F8"/>
</svg>
