<svg width="33" height="32" viewBox="0 0 33 32" fill="none" xmlns="http://www.w3.org/2000/svg">
<rect x="0.865234" width="32" height="32" rx="3.30303" fill="#0090FF"/>
<path fill-rule="evenodd" clip-rule="evenodd" d="M16.8973 11.6589C16.7178 11.6589 16.5408 11.6699 16.3671 11.6912C16.367 11.6911 16.367 11.6909 16.367 11.6908C15.2607 11.8256 14.2836 12.3789 13.5988 13.1876C13.5995 13.1879 13.6001 13.1883 13.6008 13.1887C12.9642 13.9407 12.5804 14.9134 12.5804 15.9758C12.5804 16.9761 12.9207 17.8969 13.4918 18.6289L13.4915 18.6291C14.2814 19.6413 15.5128 20.2922 16.8963 20.2922C17.0367 20.2922 17.1755 20.2855 17.3125 20.2724L17.3125 20.2735C18.4609 20.1638 19.4779 19.6043 20.1854 18.7732L20.1836 18.7722C20.8251 18.0189 21.2122 17.0423 21.2122 15.9753C21.2122 14.9538 20.8573 14.0151 20.2641 13.2758L20.2651 13.2752C19.6153 12.4658 18.6798 11.8956 17.6116 11.7178C17.6116 11.7179 17.6116 11.7181 17.6116 11.7183M16.8762 9.11112C16.0088 7.54945 14.1558 5.83312 10.2594 5.2505C9.20312 8.69252 9.70646 11.0064 10.6805 12.4712C8.96234 12.4919 6.73982 13.2363 4.36523 15.8592C6.64516 18.6458 8.8502 19.509 10.6093 19.5099C9.74447 21.0072 9.24773 23.3241 10.3531 26.7447C14.2504 26.1028 16.0967 24.3839 16.8618 22.7115C17.676 24.2875 19.4486 26.0325 23.2292 26.7891C24.4859 23.3122 24.0418 20.9427 23.0893 19.4366C24.8095 19.392 27.0266 18.6143 29.365 15.942C27.0526 13.2111 24.8463 12.3787 23.0926 12.3968C23.9454 10.901 24.4278 8.59869 23.3453 5.21069C19.5324 5.82568 17.6771 7.47699 16.8762 9.11112Z" fill="#ECF7FF"/>
</svg>
