<svg width="22" height="22" viewBox="0 0 22 22" fill="none" xmlns="http://www.w3.org/2000/svg">
<path d="M12.8327 5.49994L16.4993 9.16661M12.8327 5.49994L14.9346 3.39803C15.1065 3.22618 15.3396 3.12964 15.5827 3.12964C15.8257 3.12964 16.0589 3.22618 16.2308 3.39803L18.6013 5.76853C18.7731 5.94043 18.8697 6.17354 18.8697 6.41661C18.8697 6.65968 18.7731 6.89279 18.6013 7.06469L16.4993 9.16661L12.8327 5.49994ZM12.8327 5.49994L3.9346 14.398C3.76268 14.5699 3.66607 14.803 3.66602 15.0461V17.4166C3.66602 17.6597 3.76259 17.8929 3.9345 18.0648C4.10641 18.2367 4.33957 18.3333 4.58268 18.3333H6.95318C7.19628 18.3332 7.4294 18.2366 7.60127 18.0647L16.4993 9.16661L12.8327 5.49994Z" stroke="#ECF7FF" stroke-width="1.83333" stroke-linecap="round" stroke-linejoin="round"/>
</svg>
